
<svg xmlns="http://www.w3.org/2000/svg" viewBox="0 0 500 500" fill="#ffffff">
  <path d="M250 50C152.9 50 75 127.9 75 225c0 25.7 5.5 50.1 15.4 72.1 4.1 9.1 15.5 12.2 23.9 6.5 8.4-5.7 10.8-17.3 6.7-26.4-7.5-16.6-11.3-35-11.3-52.2 0-73.1 59.4-132.5 132.5-132.5s132.5 59.4 132.5 132.5c0 40.8-18.5 77.3-47.6 101.8-7.6 6.4-8.6 17.8-2.2 25.4 6.4 7.6 17.8 8.6 25.4 2.2 38.5-32.5 63.1-81.1 63.1-129.4C425 127.9 347.1 50 250 50z"/>
  <path d="M250 100c-69 0-125 56-125 125 0 17.2 3.5 33.6 9.8 48.5 3.5 8.3 13.2 12.3 21.5 8.8 8.3-3.5 12.3-13.2 8.8-21.5-4.8-11.3-7.4-23.7-7.4-35.8 0-52.5 42.5-95 95-95s95 42.5 95 95c0 29.3-13.3 55.5-34.2 73.1-7 5.9-7.9 16.4-2 23.4 5.9 7 16.4 7.9 23.4 2 27.5-23.2 45.1-57.9 45.1-98.5 0-69-56-125-125-125z"/>
  <path d="M250 150c-41.4 0-75 33.6-75 75 0 9.2 1.7 18 4.8 26.1 2.8 7.3 11 10.9 18.3 8.1 7.3-2.8 10.9-11 8.1-18.3-1.9-4.9-2.9-10.2-2.9-15.9 0-27.6 22.4-50 50-50s50 22.4 50 50c0 15.4-7 29.2-18 38.4-6.2 5.2-7 14.4-1.8 20.6 5.2 6.2 14.4 7 20.6 1.8 17.3-14.5 28.4-36.3 28.4-60.8 0-41.4-33.6-75-75-75z"/>
  <path d="M230 225c0-11 9-20 20-20s20 9 20 20v45c0 11-9 20-20 20s-20-9-20-20v-45z"/>
  <path d="M125 285c-8.8 0-16 7.2-16 16s7.2 16 16 16c45 0 85 15 115 40 5.5 4.6 13.7 3.9 18.3-1.6 4.6-5.5 3.9-13.7-1.6-18.3-35-29.2-82-52.1-131.7-52.1z"/>
  <path d="M155 335c-8.8 0-16 7.2-16 16s7.2 16 16 16c30 0 57 10 77 27 5.5 4.6 13.7 3.9 18.3-1.6 4.6-5.5 3.9-13.7-1.6-18.3-25-21.2-58-39.1-93.7-39.1z"/>
  <path d="M185 385c-8.8 0-16 7.2-16 16s7.2 16 16 16c15 0 28.5 5 38.5 13.5 5.5 4.6 13.7 3.9 18.3-1.6 4.6-5.5 3.9-13.7-1.6-18.3-15-12.7-33.5-25.6-55.2-25.6z"/>
  <path d="M315 285c8.8 0 16 7.2 16 16s-7.2 16-16 16c-45 0-85 15-115 40-5.5 4.6-13.7 3.9-18.3-1.6-4.6-5.5-3.9-13.7 1.6-18.3 35-29.2 82-52.1 131.7-52.1z"/>
  <path d="M285 335c8.8 0 16 7.2 16 16s-7.2 16-16 16c-30 0-57 10-77 27-5.5 4.6-13.7 3.9-18.3-1.6-4.6-5.5-3.9-13.7 1.6-18.3 25-21.2 58-39.1 93.7-39.1z"/>
  <path d="M255 385c8.8 0 16 7.2 16 16s-7.2 16-16 16c-15 0-28.5 5-38.5 13.5-5.5 4.6-13.7 3.9-18.3-1.6-4.6-5.5-3.9-13.7 1.6-18.3 15-12.7 33.5-25.6 55.2-25.6z"/>
</svg>
